<mxfile host="app.diagrams.net" agent="Mozilla/5.0 (Macintosh; Intel Mac OS X 10_15_7) AppleWebKit/537.36 (KHTML, like Gecko) Chrome/127.0.0.0 Safari/537.36" version="24.7.7">
  <diagram id="C5RBs43oDa-KdzZeNtuy" name="Page-1">
    <mxGraphModel dx="1400" dy="687" grid="1" gridSize="10" guides="1" tooltips="1" connect="1" arrows="1" fold="1" page="1" pageScale="1" pageWidth="827" pageHeight="1169" math="0" shadow="0">
      <root>
        <mxCell id="WIyWlLk6GJQsqaUBKTNV-0" />
        <mxCell id="WIyWlLk6GJQsqaUBKTNV-1" parent="WIyWlLk6GJQsqaUBKTNV-0" />
        <mxCell id="1ZDoYHBk0rpAc_C8D9v9-24" value="" style="group" vertex="1" connectable="0" parent="WIyWlLk6GJQsqaUBKTNV-1">
          <mxGeometry x="90" y="30" width="460" height="520" as="geometry" />
        </mxCell>
        <mxCell id="1ZDoYHBk0rpAc_C8D9v9-25" value="&lt;meta charset=&quot;utf-8&quot;&gt;&lt;span style=&quot;color: rgb(0, 0, 0); font-family: Helvetica; font-size: 11px; font-style: normal; font-variant-ligatures: normal; font-variant-caps: normal; font-weight: 400; letter-spacing: normal; orphans: 2; text-align: center; text-indent: 0px; text-transform: none; widows: 2; word-spacing: 0px; -webkit-text-stroke-width: 0px; white-space: nowrap; background-color: rgb(251, 251, 251); text-decoration-thickness: initial; text-decoration-style: initial; text-decoration-color: initial; display: inline !important; float: none;&quot;&gt;e&lt;/span&gt;" style="rounded=0;whiteSpace=wrap;html=1;" vertex="1" parent="1ZDoYHBk0rpAc_C8D9v9-24">
          <mxGeometry x="-30" y="-10" width="490" height="530" as="geometry" />
        </mxCell>
        <mxCell id="WIyWlLk6GJQsqaUBKTNV-2" value="" style="rounded=0;html=1;jettySize=auto;orthogonalLoop=1;fontSize=11;endArrow=block;endFill=0;endSize=8;strokeWidth=1;shadow=0;labelBackgroundColor=none;edgeStyle=orthogonalEdgeStyle;" parent="1ZDoYHBk0rpAc_C8D9v9-24" source="1ZDoYHBk0rpAc_C8D9v9-0" target="WIyWlLk6GJQsqaUBKTNV-6" edge="1">
          <mxGeometry relative="1" as="geometry" />
        </mxCell>
        <mxCell id="WIyWlLk6GJQsqaUBKTNV-3" value="getaddrinfo()" style="rounded=1;whiteSpace=wrap;html=1;fontSize=12;glass=0;strokeWidth=1;shadow=0;" parent="1ZDoYHBk0rpAc_C8D9v9-24" vertex="1">
          <mxGeometry x="150" width="120" height="40" as="geometry" />
        </mxCell>
        <mxCell id="WIyWlLk6GJQsqaUBKTNV-4" value="No&lt;div&gt;&lt;br&gt;&lt;/div&gt;" style="rounded=0;html=1;jettySize=auto;orthogonalLoop=1;fontSize=11;endArrow=block;endFill=0;endSize=8;strokeWidth=1;shadow=0;labelBackgroundColor=none;edgeStyle=orthogonalEdgeStyle;" parent="1ZDoYHBk0rpAc_C8D9v9-24" source="WIyWlLk6GJQsqaUBKTNV-6" target="WIyWlLk6GJQsqaUBKTNV-10" edge="1">
          <mxGeometry y="20" relative="1" as="geometry">
            <mxPoint as="offset" />
          </mxGeometry>
        </mxCell>
        <mxCell id="WIyWlLk6GJQsqaUBKTNV-5" value="Yes&lt;div&gt;&lt;br&gt;&lt;/div&gt;" style="edgeStyle=orthogonalEdgeStyle;rounded=0;html=1;jettySize=auto;orthogonalLoop=1;fontSize=11;endArrow=block;endFill=0;endSize=8;strokeWidth=1;shadow=0;labelBackgroundColor=none;" parent="1ZDoYHBk0rpAc_C8D9v9-24" source="WIyWlLk6GJQsqaUBKTNV-6" target="WIyWlLk6GJQsqaUBKTNV-7" edge="1">
          <mxGeometry y="10" relative="1" as="geometry">
            <mxPoint x="-1" as="offset" />
          </mxGeometry>
        </mxCell>
        <mxCell id="WIyWlLk6GJQsqaUBKTNV-6" value="Has stdin input?" style="rhombus;whiteSpace=wrap;html=1;shadow=0;fontFamily=Helvetica;fontSize=12;align=center;strokeWidth=1;spacing=6;spacingTop=-4;" parent="1ZDoYHBk0rpAc_C8D9v9-24" vertex="1">
          <mxGeometry x="160" y="210" width="100" height="80" as="geometry" />
        </mxCell>
        <mxCell id="1ZDoYHBk0rpAc_C8D9v9-5" style="edgeStyle=orthogonalEdgeStyle;rounded=0;orthogonalLoop=1;jettySize=auto;html=1;exitX=0.5;exitY=1;exitDx=0;exitDy=0;entryX=0.5;entryY=0;entryDx=0;entryDy=0;" edge="1" parent="1ZDoYHBk0rpAc_C8D9v9-24" source="WIyWlLk6GJQsqaUBKTNV-7" target="1ZDoYHBk0rpAc_C8D9v9-4">
          <mxGeometry relative="1" as="geometry" />
        </mxCell>
        <mxCell id="WIyWlLk6GJQsqaUBKTNV-7" value="fgets(stdin)" style="rounded=1;whiteSpace=wrap;html=1;fontSize=12;glass=0;strokeWidth=1;shadow=0;" parent="1ZDoYHBk0rpAc_C8D9v9-24" vertex="1">
          <mxGeometry x="320" y="230" width="120" height="40" as="geometry" />
        </mxCell>
        <mxCell id="WIyWlLk6GJQsqaUBKTNV-8" value="No" style="rounded=0;html=1;jettySize=auto;orthogonalLoop=1;fontSize=11;endArrow=block;endFill=0;endSize=8;strokeWidth=1;shadow=0;labelBackgroundColor=none;edgeStyle=orthogonalEdgeStyle;" parent="1ZDoYHBk0rpAc_C8D9v9-24" source="WIyWlLk6GJQsqaUBKTNV-10" edge="1">
          <mxGeometry x="-0.8324" y="19" relative="1" as="geometry">
            <mxPoint as="offset" />
            <mxPoint x="210" y="190" as="targetPoint" />
            <Array as="points">
              <mxPoint x="210" y="440" />
              <mxPoint x="450" y="440" />
              <mxPoint x="450" y="190" />
            </Array>
          </mxGeometry>
        </mxCell>
        <mxCell id="1ZDoYHBk0rpAc_C8D9v9-32" value="Yes&lt;div&gt;&lt;br&gt;&lt;/div&gt;" style="edgeStyle=orthogonalEdgeStyle;rounded=0;orthogonalLoop=1;jettySize=auto;html=1;exitX=0;exitY=0.5;exitDx=0;exitDy=0;entryX=1;entryY=0.5;entryDx=0;entryDy=0;" edge="1" parent="1ZDoYHBk0rpAc_C8D9v9-24" target="1ZDoYHBk0rpAc_C8D9v9-10">
          <mxGeometry relative="1" as="geometry">
            <mxPoint x="170" y="380" as="sourcePoint" />
            <mxPoint x="130" y="250" as="targetPoint" />
            <Array as="points">
              <mxPoint x="170" y="350" />
              <mxPoint x="140" y="350" />
              <mxPoint x="140" y="250" />
            </Array>
          </mxGeometry>
        </mxCell>
        <mxCell id="WIyWlLk6GJQsqaUBKTNV-10" value="Has socket() input?" style="rhombus;whiteSpace=wrap;html=1;shadow=0;fontFamily=Helvetica;fontSize=12;align=center;strokeWidth=1;spacing=6;spacingTop=-4;" parent="1ZDoYHBk0rpAc_C8D9v9-24" vertex="1">
          <mxGeometry x="160" y="340" width="100" height="80" as="geometry" />
        </mxCell>
        <mxCell id="1ZDoYHBk0rpAc_C8D9v9-2" value="" style="rounded=0;html=1;jettySize=auto;orthogonalLoop=1;fontSize=11;endArrow=block;endFill=0;endSize=8;strokeWidth=1;shadow=0;labelBackgroundColor=none;edgeStyle=orthogonalEdgeStyle;" edge="1" parent="1ZDoYHBk0rpAc_C8D9v9-24" source="WIyWlLk6GJQsqaUBKTNV-3" target="1ZDoYHBk0rpAc_C8D9v9-1">
          <mxGeometry relative="1" as="geometry">
            <mxPoint x="210" y="40" as="sourcePoint" />
            <mxPoint x="210" y="140" as="targetPoint" />
          </mxGeometry>
        </mxCell>
        <mxCell id="1ZDoYHBk0rpAc_C8D9v9-1" value="socket()" style="rounded=1;whiteSpace=wrap;html=1;fontSize=12;glass=0;strokeWidth=1;shadow=0;" vertex="1" parent="1ZDoYHBk0rpAc_C8D9v9-24">
          <mxGeometry x="150" y="70" width="120" height="40" as="geometry" />
        </mxCell>
        <mxCell id="1ZDoYHBk0rpAc_C8D9v9-3" value="" style="rounded=0;html=1;jettySize=auto;orthogonalLoop=1;fontSize=11;endArrow=block;endFill=0;endSize=8;strokeWidth=1;shadow=0;labelBackgroundColor=none;edgeStyle=orthogonalEdgeStyle;" edge="1" parent="1ZDoYHBk0rpAc_C8D9v9-24" source="1ZDoYHBk0rpAc_C8D9v9-1" target="1ZDoYHBk0rpAc_C8D9v9-0">
          <mxGeometry relative="1" as="geometry">
            <mxPoint x="210" y="110" as="sourcePoint" />
            <mxPoint x="210" y="210" as="targetPoint" />
          </mxGeometry>
        </mxCell>
        <mxCell id="1ZDoYHBk0rpAc_C8D9v9-0" value="connect()" style="rounded=1;whiteSpace=wrap;html=1;fontSize=12;glass=0;strokeWidth=1;shadow=0;" vertex="1" parent="1ZDoYHBk0rpAc_C8D9v9-24">
          <mxGeometry x="150" y="130" width="120" height="40" as="geometry" />
        </mxCell>
        <mxCell id="1ZDoYHBk0rpAc_C8D9v9-6" style="edgeStyle=orthogonalEdgeStyle;rounded=0;orthogonalLoop=1;jettySize=auto;html=1;exitX=0.5;exitY=1;exitDx=0;exitDy=0;entryX=1;entryY=0.5;entryDx=0;entryDy=0;" edge="1" parent="1ZDoYHBk0rpAc_C8D9v9-24" source="1ZDoYHBk0rpAc_C8D9v9-4" target="WIyWlLk6GJQsqaUBKTNV-10">
          <mxGeometry relative="1" as="geometry" />
        </mxCell>
        <mxCell id="1ZDoYHBk0rpAc_C8D9v9-4" value="send()" style="rounded=1;whiteSpace=wrap;html=1;fontSize=12;glass=0;strokeWidth=1;shadow=0;" vertex="1" parent="1ZDoYHBk0rpAc_C8D9v9-24">
          <mxGeometry x="320" y="290" width="120" height="40" as="geometry" />
        </mxCell>
        <mxCell id="1ZDoYHBk0rpAc_C8D9v9-14" style="edgeStyle=orthogonalEdgeStyle;rounded=0;orthogonalLoop=1;jettySize=auto;html=1;exitX=0.5;exitY=1;exitDx=0;exitDy=0;entryX=0.5;entryY=0;entryDx=0;entryDy=0;" edge="1" parent="1ZDoYHBk0rpAc_C8D9v9-24" source="1ZDoYHBk0rpAc_C8D9v9-9" target="1ZDoYHBk0rpAc_C8D9v9-11">
          <mxGeometry relative="1" as="geometry" />
        </mxCell>
        <mxCell id="1ZDoYHBk0rpAc_C8D9v9-31" value="Yes" style="edgeLabel;html=1;align=center;verticalAlign=middle;resizable=0;points=[];" vertex="1" connectable="0" parent="1ZDoYHBk0rpAc_C8D9v9-14">
          <mxGeometry x="-0.2773" y="-3" relative="1" as="geometry">
            <mxPoint y="-1" as="offset" />
          </mxGeometry>
        </mxCell>
        <mxCell id="1ZDoYHBk0rpAc_C8D9v9-17" style="edgeStyle=orthogonalEdgeStyle;rounded=0;orthogonalLoop=1;jettySize=auto;html=1;exitX=1;exitY=0.5;exitDx=0;exitDy=0;entryX=0;entryY=0.5;entryDx=0;entryDy=0;" edge="1" parent="1ZDoYHBk0rpAc_C8D9v9-24" source="1ZDoYHBk0rpAc_C8D9v9-9" target="1ZDoYHBk0rpAc_C8D9v9-12">
          <mxGeometry relative="1" as="geometry">
            <Array as="points">
              <mxPoint x="140" y="370" />
              <mxPoint x="140" y="480" />
            </Array>
          </mxGeometry>
        </mxCell>
        <mxCell id="1ZDoYHBk0rpAc_C8D9v9-30" value="No&lt;div&gt;&lt;br&gt;&lt;/div&gt;" style="edgeLabel;html=1;align=center;verticalAlign=middle;resizable=0;points=[];" vertex="1" connectable="0" parent="1ZDoYHBk0rpAc_C8D9v9-17">
          <mxGeometry x="-0.2" y="1" relative="1" as="geometry">
            <mxPoint as="offset" />
          </mxGeometry>
        </mxCell>
        <mxCell id="1ZDoYHBk0rpAc_C8D9v9-9" value="Socket closed by peer?" style="rhombus;whiteSpace=wrap;html=1;shadow=0;fontFamily=Helvetica;fontSize=12;align=center;strokeWidth=1;spacing=6;spacingTop=-4;" vertex="1" parent="1ZDoYHBk0rpAc_C8D9v9-24">
          <mxGeometry x="10" y="330" width="100" height="80" as="geometry" />
        </mxCell>
        <mxCell id="1ZDoYHBk0rpAc_C8D9v9-13" style="edgeStyle=orthogonalEdgeStyle;rounded=0;orthogonalLoop=1;jettySize=auto;html=1;exitX=0.5;exitY=1;exitDx=0;exitDy=0;" edge="1" parent="1ZDoYHBk0rpAc_C8D9v9-24" source="1ZDoYHBk0rpAc_C8D9v9-10" target="1ZDoYHBk0rpAc_C8D9v9-9">
          <mxGeometry relative="1" as="geometry" />
        </mxCell>
        <mxCell id="1ZDoYHBk0rpAc_C8D9v9-10" value="recv()" style="rounded=1;whiteSpace=wrap;html=1;fontSize=12;glass=0;strokeWidth=1;shadow=0;" vertex="1" parent="1ZDoYHBk0rpAc_C8D9v9-24">
          <mxGeometry y="230" width="120" height="40" as="geometry" />
        </mxCell>
        <mxCell id="1ZDoYHBk0rpAc_C8D9v9-11" value="close()" style="rounded=1;whiteSpace=wrap;html=1;fontSize=12;glass=0;strokeWidth=1;shadow=0;" vertex="1" parent="1ZDoYHBk0rpAc_C8D9v9-24">
          <mxGeometry y="460" width="120" height="40" as="geometry" />
        </mxCell>
        <mxCell id="1ZDoYHBk0rpAc_C8D9v9-23" style="edgeStyle=orthogonalEdgeStyle;rounded=0;orthogonalLoop=1;jettySize=auto;html=1;exitX=1;exitY=0.5;exitDx=0;exitDy=0;" edge="1" parent="1ZDoYHBk0rpAc_C8D9v9-24" source="1ZDoYHBk0rpAc_C8D9v9-12">
          <mxGeometry relative="1" as="geometry">
            <mxPoint x="450" y="440" as="targetPoint" />
            <Array as="points">
              <mxPoint x="450" y="480" />
            </Array>
          </mxGeometry>
        </mxCell>
        <mxCell id="1ZDoYHBk0rpAc_C8D9v9-12" value="printf()" style="rounded=1;whiteSpace=wrap;html=1;fontSize=12;glass=0;strokeWidth=1;shadow=0;" vertex="1" parent="1ZDoYHBk0rpAc_C8D9v9-24">
          <mxGeometry x="190" y="460" width="120" height="40" as="geometry" />
        </mxCell>
      </root>
    </mxGraphModel>
  </diagram>
</mxfile>
